<?xml version="1.0" encoding="UTF-8" standalone="no"?>
<!-- Created with Inkscape (http://www.inkscape.org/) -->

<svg
   version="1.1"
   id="svg1"
   width="200"
   height="200"
   viewBox="0 0 200 200"
   sodipodi:docname="it_event_kg__logo3.svg"
   inkscape:version="1.3 (0e150ed6c4, 2023-07-21)"
   xmlns:inkscape="http://www.inkscape.org/namespaces/inkscape"
   xmlns:sodipodi="http://sodipodi.sourceforge.net/DTD/sodipodi-0.dtd"
   xmlns="http://www.w3.org/2000/svg"
   xmlns:svg="http://www.w3.org/2000/svg">
  <defs
     id="defs1" />
  <sodipodi:namedview
     id="namedview1"
     pagecolor="#ffffff"
     bordercolor="#000000"
     borderopacity="0.25"
     inkscape:showpageshadow="2"
     inkscape:pageopacity="0.0"
     inkscape:pagecheckerboard="0"
     inkscape:deskcolor="#d1d1d1"
     inkscape:zoom="3.755"
     inkscape:cx="50.998668"
     inkscape:cy="90.945406"
     inkscape:window-width="1920"
     inkscape:window-height="986"
     inkscape:window-x="-11"
     inkscape:window-y="-11"
     inkscape:window-maximized="1"
     inkscape:current-layer="g1" />
  <g
     inkscape:groupmode="layer"
     inkscape:label="Image"
     id="g1">
    <path
       style="fill:#ffffff;fill-opacity:1;image-rendering:auto"
       d="M 1.3608921e-6,99.467364 V -0.53262238 H 100.00001 h 100 V 99.467364 199.46736 h -100 H 1.3608921e-6 Z M 64.750004,144.21736 c -0.56722,-1.70167 -10.93278,-1.70167 -11.5,0 -0.3033,0.90991 1.26111,1.25 5.75,1.25 4.48889,0 6.0533,-0.34009 5.75,-1.25 z m 72.000006,0 c -0.26389,-0.79167 -2.37222,-1.25 -5.75,-1.25 -3.37778,0 -5.48611,0.45833 -5.75,1.25 -0.3033,0.90991 1.26111,1.25 5.75,1.25 4.48889,0 6.0533,-0.34009 5.75,-1.25 z m -61.668226,-2.75 c 0.50502,0 0.91822,-0.70532 0.91822,-1.56739 0,-1.10699 -0.58155,-1.38281 -1.97982,-0.93901 -1.08891,0.3456 -2.7235,0.21218 -3.63243,-0.29648 -1.32442,-0.74118 -0.93821,-1.05887 1.94474,-1.59972 1.97854,-0.37117 3.83959,-1.06683 4.13567,-1.54589 0.96421,-1.56013 -0.68428,-4.18318 -3.23953,-5.15468 -4.67627,-1.77792 -8.9335,2.96544 -7.10291,7.91399 0.88307,2.38716 4.50932,4.34825 6.70606,3.62665 0.73249,-0.24061 1.74499,-0.43747 2.25,-0.43747 z m -5.28178,-8.2 c 0.93333,-0.93333 1.46667,-0.93333 2.4,0 0.93333,0.93333 0.66666,1.2 -1.2,1.2 -1.86667,0 -2.13333,-0.26667 -1.2,-1.2 z m 30.281796,8.2 c 0.50501,0 0.91821,-0.68357 0.91821,-1.51905 0,-1.1025 -0.65564,-1.3545 -2.390917,-0.91897 -1.315,0.33004 -2.6775,0.13635 -3.02779,-0.43043 -0.369499,-0.59787 0.84417,-1.30834 2.89091,-1.69231 2.455717,-0.4607 3.527797,-1.19858 3.527797,-2.42809 0,-3.78746 -6.228607,-5.72617 -9.547496,-2.97174 -2.48476,2.06217 -1.51435,8.13079 1.54749,9.67749 1.375,0.69458 3.099299,1.04243 3.831779,0.77299 0.73249,-0.26944 1.744994,-0.48989 2.250017,-0.48989 z m -5.581796,-8 c 0.33992,-0.55 1.266469,-1 2.059009,-1 0.79254,0 1.44099,0.45 1.44099,1 0,0.55 -0.92656,1 -2.05902,1 -1.132459,0 -1.780899,-0.45 -1.440979,-1 z m 30.002316,6.16898 c -0.36794,-0.36794 -1.19398,-0.66898 -1.83564,-0.66898 -0.64167,0 -1.30338,-1.17868 -1.47048,-2.6193 -0.22974,-1.98073 0.22142,-2.75664 1.85062,-3.18269 2.29344,-0.59975 1.82229,-2.69801 -0.60583,-2.69801 -0.79254,0 -1.44098,-0.675 -1.44098,-1.5 0,-0.83333 -0.88889,-1.5 -2,-1.5 -1.75758,0 -2,0.66667 -2,5.5 0,6.69921 2.61423,10.31201 6.10856,8.4419 1.13451,-0.60717 1.76169,-1.40498 1.39375,-1.77292 z m 40.75674,0.42705 c 0.41748,-0.60282 0.64248,-2.22103 0.5,-3.59603 -0.20966,-2.02334 -0.87871,-2.55975 -3.50905,-2.81336 -2.41439,-0.23279 -3.25,0.0886 -3.25,1.25 0,0.85985 0.675,1.56336 1.5,1.56336 0.825,0 1.5,0.45 1.5,1 0,1.59908 -5.0039,1.15342 -5.63923,-0.50224 -0.31706,-0.82623 -0.29436,-2.62623 0.0504,-4 0.53721,-2.14041 1.19644,-2.49776 4.60784,-2.49776 4.50489,0 5.24911,-1.56735 1.43312,-3.01819 -1.82382,-0.69341 -3.51191,-0.56586 -5.94045,0.44885 -4.21059,1.75929 -5.72858,7.06324 -3.14847,11.00097 2.26026,3.4496 9.80195,4.1878 11.8958,1.1644 z M 38.795694,134.7277 c -0.24056,-5.483 -0.62199,-6.80188 -2.04569,-7.07333 -1.53318,-0.29232 -1.75,0.54272 -1.75,6.73967 0,6.45931 0.17758,7.07332 2.04569,7.07332 1.88781,0 2.02287,-0.52013 1.75,-6.73966 z m 9.20431,1.30921 c 0,-4.69449 0.27642,-5.47376 2.03961,-5.75 4.10229,-0.64271 1.83274,-2.32775 -3.52811,-2.61945 -4.44031,-0.24162 -5.5115,10e-4 -5.5115,1.25 0,0.88323 0.86027,1.5499 2,1.5499 1.75758,0 2,0.66667 2,5.5 0,4.22222 0.34848,5.5 1.5,5.5 1.14919,0 1.5,-1.27005 1.5,-5.43045 z m 39.09751,2.68045 c 2.10773,-5.53073 2.27336,-8.25 0.50249,-8.25 -1.03586,0 -1.87488,1.12437 -2.25417,3.02081 -0.8716,4.35801 -2.14255,4.57969 -2.9066,0.50698 -0.48948,-2.60917 -1.17117,-3.52779 -2.61791,-3.52779 -2.10594,0 -2.00835,1.01178 0.74744,7.75 1.70626,4.17199 5.0323,4.42671 6.52875,0.5 z m 20.902496,-1.83333 c 0,-5.90202 2.36777,-5.55535 2.8075,0.41105 0.25066,3.40109 0.67667,4.17228 2.30479,4.17228 1.75845,0 1.96084,-0.56707 1.6925,-4.7421 -0.25715,-4.00081 -0.72024,-4.94034 -2.96251,-6.01033 -1.8841,-0.89908 -3.41228,-0.98136 -5.25,-0.28266 -2.31501,0.88017 -2.59228,1.52304 -2.59228,6.01034 0,4.35808 0.26535,5.02475 2,5.02475 1.70909,0 2,-0.66667 2,-4.58333 z m 34,1.89624 v -2.68709 l 2.9403,2.81699 c 1.94967,1.8679 3.51929,2.59481 4.65879,2.15754 1.51102,-0.57983 1.3757,-1.01723 -1.12095,-3.62316 l -2.83942,-2.96372 2.18064,-2.32119 c 4.42227,-4.70728 1.69747,-6.51968 -3.01464,-2.00519 l -2.80472,2.68709 v -2.68709 c 0,-1.72186 -0.53882,-2.68709 -1.5,-2.68709 -1.19048,0 -1.5,1.44444 -1.5,7 0,5.55556 0.30952,7 1.5,7 0.96118,0 1.5,-0.96523 1.5,-2.68709 z M 80.974434,113.64395 c 4.26952,-1.63612 4.72746,-1.62874 10,0.16118 6.687889,2.27042 14.581296,1.83704 21.388986,-1.17433 4.32115,-1.91144 5.88072,-4.27649 3.70624,-5.62039 -0.51169,-0.31625 -3.8614,0.38721 -7.4438,1.56322 -5.10697,1.6765 -7.71324,1.98832 -12.069667,1.44402 -3.055899,-0.38181 -5.556189,-0.95163 -5.556189,-1.26627 0,-0.31464 1.58024,-1.96976 3.51165,-3.67804 2.678459,-2.36904 3.277579,-3.46188 2.525099,-4.60598 -1.09894,-1.670883 -0.33407,-2.008303 -11.717459,5.16922 -3.20061,2.01807 -7.05679,3.97936 -8.56929,4.35841 -2.32209,0.58195 -2.75,0.37383 -2.75,-1.33743 0,-3.69477 0.9802,-4.91664 3.5501,-4.42537 3.24185,0.61972 3.14019,-0.85364 -0.56277,-8.155743 -8.99889,-17.745501 2.99273,-37.683598 22.733023,-37.797481 5.348863,-0.03086 7.550123,0.509876 12.529113,3.077738 4.46882,2.304752 6.37728,2.835414 7.33593,2.039809 0.71265,-0.591449 1.05173,-1.711207 0.75351,-2.488351 -0.447,-1.16488 3.00986,-3.440785 5.2262,-3.440785 1.58863,0 -0.16619,5.631555 -3.44401,11.052488 -3.7616,6.221008 -4.26029,8.947512 -1.63655,8.947512 0.69882,0 1.86698,-0.718627 2.59592,-1.59695 1.20344,-1.450056 1.39221,-1.427059 2.05216,0.25 1.65259,4.199519 0.87711,13.78409 -1.53427,18.96287 -3.93408,8.449013 0.26744,10.484183 4.50631,2.18279 3.03557,-5.94486 3.66532,-15.964426 1.42697,-22.703473 -1.58593,-4.774802 -1.59552,-5.478289 -0.12479,-9.154002 2.02969,-5.07271 2.03159,-9.332479 0.005,-11.014477 -2.12744,-1.765619 -7.37364,-1.514944 -11.35217,0.542431 -2.89389,1.49649 -3.63161,1.521526 -6.89996,0.234161 -9.47712,-3.732935 -20.262046,-2.481038 -28.712286,3.332878 -11.30166,7.775749 -16.26049,22.60793 -11.87605,35.522012 1.42839,4.20722 1.42839,4.985267 0,8.555173 -2.24078,5.60027 -2.01896,9.4596 0.65122,11.32987 2.7567,1.93087 4.11412,1.89375 9.75192,-0.26671 z m 29.091316,-13.21177 c 1.39714,-0.747726 1.93426,-2.102173 1.93426,-4.877553 0,-2.35574 0.64029,-4.37337 1.6549,-5.21481 2.44627,-2.028735 4.69637,-7.921169 3.48672,-9.13082 -1.41548,-1.415476 -5.48776,-0.162684 -8.95519,2.75496 -2.2449,1.888965 -3.67777,2.355155 -5.88308,1.914085 -3.401877,-0.68037 -4.990257,0.77382 -5.919337,5.419235 -0.76534,3.82667 1.68038,5.32677 4.509847,2.76615 1.64884,-1.49218 1.94132,-1.49957 3.12038,-0.0789 0.98542,1.18736 1.0202,1.8484 0.14338,2.72522 -0.63669,0.63669 -1.15762,1.96762 -1.15762,2.957617 0,2.058746 3.86608,2.477216 7.06574,0.764816 z"
       id="path1"
       inkscape:highlight-color="#ab343a" />
  </g>
</svg>
